<svg xmlns="http://www.w3.org/2000/svg" xmlns:xlink="http://www.w3.org/1999/xlink" viewBox="0 0 177.39 92.07"><defs><style>.cls-1{isolation:isolate;}.cls-2{fill:url(#Namnlös_övertoning_66);}.cls-3{fill:url(#Namnlös_övertoning_66-2);}.cls-4{fill:url(#Namnlös_övertoning_66-3);}.cls-5{fill:url(#Namnlös_övertoning_66-4);}.cls-6{fill:url(#Namnlös_övertoning_66-5);}.cls-7{fill:url(#Namnlös_övertoning_63);}.cls-8{fill:#03e003;}.cls-9{fill:url(#Namnlös_övertoning_74);}.cls-10,.cls-11,.cls-12,.cls-13,.cls-14,.cls-15{mix-blend-mode:hard-light;}.cls-10{fill:url(#Namnlös_övertoning_48);}.cls-11{fill:url(#Namnlös_övertoning_48-2);}.cls-12{fill:url(#Namnlös_övertoning_48-3);}.cls-13{fill:url(#Namnlös_övertoning_48-4);}.cls-14{fill:url(#Namnlös_övertoning_48-5);}.cls-15{fill:url(#Namnlös_övertoning_48-6);}</style><linearGradient id="Namnlös_övertoning_66" x1="110.18" y1="80.92" x2="161.5" y2="99.6" gradientTransform="matrix(1, 0, -0.14, 1, -20.54, 0)" gradientUnits="userSpaceOnUse"><stop offset="0" stop-color="#03e003"/><stop offset="0.44" stop-color="#03de03"/><stop offset="0.6" stop-color="#03d703"/><stop offset="0.72" stop-color="#02cc02"/><stop offset="0.81" stop-color="#02bb02"/><stop offset="0.89" stop-color="#01a501"/><stop offset="0.96" stop-color="#018a01"/><stop offset="1" stop-color="#007600"/></linearGradient><linearGradient id="Namnlös_övertoning_66-2" x1="154.34" y1="80.61" x2="185.53" y2="91.96" xlink:href="#Namnlös_övertoning_66"/><linearGradient id="Namnlös_övertoning_66-3" x1="174.86" y1="96.62" x2="205.93" y2="107.93" xlink:href="#Namnlös_övertoning_66"/><linearGradient id="Namnlös_övertoning_66-4" x1="201.49" y1="95.43" x2="240.29" y2="109.55" xlink:href="#Namnlös_övertoning_66"/><linearGradient id="Namnlös_övertoning_66-5" x1="235.4" y1="98.39" x2="257.79" y2="106.54" xlink:href="#Namnlös_övertoning_66"/><radialGradient id="Namnlös_övertoning_63" cx="216.71" cy="74.33" r="12.29" gradientUnits="userSpaceOnUse"><stop offset="0.04" stop-color="#d8002f"/><stop offset="0.27" stop-color="#d3002c"/><stop offset="0.53" stop-color="#c40025"/><stop offset="0.82" stop-color="#ad0018"/><stop offset="1" stop-color="#9a000e"/></radialGradient><linearGradient id="Namnlös_övertoning_74" x1="72.49" y1="67.53" x2="74.3" y2="65.72" gradientTransform="matrix(1.51, -0.09, -0.09, 1.17, 112.19, 3.09)" gradientUnits="userSpaceOnUse"><stop offset="0" stop-color="#fff" stop-opacity="0"/><stop offset="0.37" stop-color="#fff" stop-opacity="0.39"/><stop offset="0.81" stop-color="#fff" stop-opacity="0.83"/><stop offset="1" stop-color="#fff"/></linearGradient><linearGradient id="Namnlös_övertoning_48" x1="134.04" y1="117.41" x2="126.13" y2="61.12" gradientTransform="matrix(1, 0, -0.14, 1, -20.54, 0)" gradientUnits="userSpaceOnUse"><stop offset="0" stop-color="#03e003" stop-opacity="0"/><stop offset="0.25" stop-color="#03e003" stop-opacity="0.01"/><stop offset="0.39" stop-color="#03e103" stop-opacity="0.04"/><stop offset="0.5" stop-color="#03e303" stop-opacity="0.09"/><stop offset="0.6" stop-color="#02e502" stop-opacity="0.17"/><stop offset="0.68" stop-color="#02e802" stop-opacity="0.27"/><stop offset="0.76" stop-color="#02ec02" stop-opacity="0.39"/><stop offset="0.83" stop-color="#01f101" stop-opacity="0.53"/><stop offset="0.9" stop-color="#01f601" stop-opacity="0.7"/><stop offset="0.96" stop-color="#00fb00" stop-opacity="0.88"/><stop offset="1" stop-color="lime"/></linearGradient><linearGradient id="Namnlös_övertoning_48-2" x1="170.87" y1="116.43" x2="162.28" y2="55.29" xlink:href="#Namnlös_övertoning_48"/><linearGradient id="Namnlös_övertoning_48-3" x1="191.93" y1="116.81" x2="187.56" y2="85.71" xlink:href="#Namnlös_övertoning_48"/><linearGradient id="Namnlös_övertoning_48-4" x1="221.56" y1="117.84" x2="216.86" y2="84.41" xlink:href="#Namnlös_övertoning_48"/><linearGradient id="Namnlös_övertoning_48-5" x1="248.4" y1="116.58" x2="244.03" y2="85.5" xlink:href="#Namnlös_övertoning_48"/><linearGradient id="Namnlös_övertoning_48-6" x1="232.64" y1="117.08" x2="232.64" y2="85.67" gradientTransform="matrix(1, 0, 0, 1, 0, 0)" xlink:href="#Namnlös_övertoning_48"/></defs><title>elexir_logga</title><g class="cls-1"><g id="Lager_1" data-name="Lager 1"><path class="cls-2" d="M121,104.21a1.54,1.54,0,0,1,1.49.8,3.39,3.39,0,0,1,.24,2.07,6.66,6.66,0,0,1-1.44,3.4,10.15,10.15,0,0,1-3.66,2.53A45.29,45.29,0,0,1,107,116a74,74,0,0,1-12.49,1.1,42.24,42.24,0,0,1-13.81-1.9q-5.4-1.9-7.7-5.24a10.28,10.28,0,0,1-1.71-7.54,16.2,16.2,0,0,1,5.07-9.77q4.27-4,11.72-5.84a9.06,9.06,0,0,1-5.47-4,9.59,9.59,0,0,1-1.2-6.4,15.07,15.07,0,0,1,4.23-8.5,23.49,23.49,0,0,1,9-5.7,33.08,33.08,0,0,1,11.55-2q8.27,0,11.9,3.57A10.22,10.22,0,0,1,120.94,73a14,14,0,0,1-2.33,6.37,5.32,5.32,0,0,1-4.44,2.43,4.16,4.16,0,0,1-2.82-.83,2.63,2.63,0,0,1-.72-2.5,11.08,11.08,0,0,1,.68-2.47,26.13,26.13,0,0,0,.76-3,4.24,4.24,0,0,0-1.25-3.9q-1.59-1.5-5.79-1.5A17.1,17.1,0,0,0,95.62,70a8.93,8.93,0,0,0-4.31,6.47,5.49,5.49,0,0,0,1.84,5.17q2.28,2,8.06,2.23a2.72,2.72,0,0,1,2,.67,2.51,2.51,0,0,1,.32,2q-.62,4.4-4.63,4.47a29.63,29.63,0,0,0-9.39,1.53,14.07,14.07,0,0,0-5.77,3.57,8.74,8.74,0,0,0-2.29,4.64,5.75,5.75,0,0,0,3,6.23q3.57,2.1,12,2.1a59.45,59.45,0,0,0,11.89-1.3,64.79,64.79,0,0,0,11-3.17A5.15,5.15,0,0,1,121,104.21Z" transform="translate(-71.2 -54.06)"/><path class="cls-3" d="M144.81,102.68a3.88,3.88,0,0,1,.19,2.2,7,7,0,0,1-1.85,4.13,35.33,35.33,0,0,1-7.05,5.8,14.92,14.92,0,0,1-8,2.27,7.83,7.83,0,0,1-8-5.34q-2.09-5.34-.89-13.81A102,102,0,0,1,124,79.4a73,73,0,0,1,8.71-17.87q5.15-7.47,10.82-7.47a4.79,4.79,0,0,1,4.62,3q1.41,3,.64,8.5-1.12,7.94-7,18.41A123.37,123.37,0,0,1,127,104.68a6.83,6.83,0,0,0,1,3.9,3.13,3.13,0,0,0,2.64,1.17,8.7,8.7,0,0,0,5-1.57,45.19,45.19,0,0,0,6-5.37,2.74,2.74,0,0,1,1.93-.93A1.31,1.31,0,0,1,144.81,102.68ZM136.9,66.19a102.67,102.67,0,0,0-5.33,13.74,106.36,106.36,0,0,0-3.81,15.74A102.61,102.61,0,0,0,137.49,80a47.48,47.48,0,0,0,4.81-14.31q.71-5.07-1.15-5.07Q139.61,60.66,136.9,66.19Z" transform="translate(-71.2 -54.06)"/><path class="cls-4" d="M171,102.68a3.88,3.88,0,0,1,.19,2.2,7,7,0,0,1-1.85,4.13,29.75,29.75,0,0,1-7.75,5.54,21.35,21.35,0,0,1-10,2.53q-7,0-10.34-3.8t-2.41-10.4A21.6,21.6,0,0,1,142,94.31a19.47,19.47,0,0,1,6.25-6.3,15.09,15.09,0,0,1,8.1-2.33,7.39,7.39,0,0,1,5.88,2.3q2,2.3,1.46,6.24a12.62,12.62,0,0,1-4.41,7.9q-3.77,3.3-11.91,5.24,1.24,3.07,5.9,3.07a16.31,16.31,0,0,0,7.13-2.1,27.64,27.64,0,0,0,7.41-5.5,2.74,2.74,0,0,1,1.93-.93A1.31,1.31,0,0,1,171,102.68Zm-21.27-7.6a15.05,15.05,0,0,0-2.68,6.94l0,.13a17.69,17.69,0,0,0,6.6-2.8A6.54,6.54,0,0,0,156.53,95a2.61,2.61,0,0,0-.41-2,2.13,2.13,0,0,0-1.79-.77Q151.85,92.2,149.75,95.07Z" transform="translate(-71.2 -54.06)"/><path class="cls-5" d="M206,102.68a3.87,3.87,0,0,1,.19,2.2,7,7,0,0,1-1.85,4.13,36.93,36.93,0,0,1-7.25,5.77,15.68,15.68,0,0,1-8.23,2.3,12.62,12.62,0,0,1-5.86-1.27,8.25,8.25,0,0,1-3.66-3.6q-4.48,4.8-9.68,4.8a6.29,6.29,0,0,1-6.84-7.8,10.07,10.07,0,0,1,2.29-5.4,5.9,5.9,0,0,1,4.63-2.07q2.4,0,2.15,1.8-.07.47-.37,1.67-.54,2.4-.58,2.73-.28,2,1.45,2a3.79,3.79,0,0,0,2.64-1.5,14.78,14.78,0,0,0,2.51-4.1,22,22,0,0,0,1.57-5.74,11.39,11.39,0,0,0,0-4q-.37-1.63-1.24-1.63a1.56,1.56,0,0,0-1.12.37,4.9,4.9,0,0,0-.84,1.23,5.43,5.43,0,0,1-1.31,1.7,3.75,3.75,0,0,1-2.42.63,2.49,2.49,0,0,1-2.19-1,4.46,4.46,0,0,1-.42-3.17,8.09,8.09,0,0,1,2.82-5.34,8.52,8.52,0,0,1,5.61-1.93,8.67,8.67,0,0,1,4.88,1.37,7.22,7.22,0,0,1,2.91,4,16.92,16.92,0,0,1,5.06-4,11.47,11.47,0,0,1,5.09-1.33,5.19,5.19,0,0,1,3.8,1.2q1.2,1.2.82,3.87a9.46,9.46,0,0,1-1.8,4.7,3.86,3.86,0,0,1-3,1.7,2.33,2.33,0,0,1-1.92-.6,3.41,3.41,0,0,1-.56-1.73,2.83,2.83,0,0,0-.23-1.2.9.9,0,0,0-.88-.4q-.8,0-1.91,1.5a17.69,17.69,0,0,0-2.09,4,22.27,22.27,0,0,0-1.36,5.14,6.43,6.43,0,0,0,.82,4.83,4.5,4.5,0,0,0,3.86,1.7,9,9,0,0,0,5.15-1.77,43.58,43.58,0,0,0,6.14-5.5,2.74,2.74,0,0,1,1.93-.93A1.3,1.3,0,0,1,206,102.68Z" transform="translate(-71.2 -54.06)"/><path class="cls-6" d="M201.37,114q-1.54-3.07-.82-8.14a53.27,53.27,0,0,1,1.85-7.7,80.89,80.89,0,0,1,3.2-8.77,6.81,6.81,0,0,1,2-2.93,5.67,5.67,0,0,1,3.31-.8q3.4,0,3.08,2.27a57.32,57.32,0,0,1-2.35,7.74,63.11,63.11,0,0,0-3,9.94,6.7,6.7,0,0,0,.1,3.07,1.57,1.57,0,0,0,1.65,1.07,5.91,5.91,0,0,0,3.24-1.67,73.56,73.56,0,0,0,5.54-5.27,2.74,2.74,0,0,1,1.93-.93,1.3,1.3,0,0,1,1.25.8,3.87,3.87,0,0,1,.19,2.2,7,7,0,0,1-1.85,4.13q-7.74,8.07-13.47,8.07Q202.91,117.08,201.37,114Z" transform="translate(-71.2 -54.06)"/><path class="cls-7" d="M208.79,80a4.2,4.2,0,0,1-.89-3.64,5.81,5.81,0,0,1,2.38-3.9,7.68,7.68,0,0,1,4.79-1.57,5.61,5.61,0,0,1,3.83,1.2,3.57,3.57,0,0,1,1.06,3.4,6.34,6.34,0,0,1-2.33,4.23,7.47,7.47,0,0,1-4.82,1.57A5.3,5.3,0,0,1,208.79,80Z" transform="translate(-71.2 -54.06)"/><path class="cls-8" d="M247.88,95.84a3.09,3.09,0,0,1,.67,2.57,5.64,5.64,0,0,1-.66,1.87,13.82,13.82,0,0,1-3.58,4.14,7.3,7.3,0,0,1-4.5,1.67,3.68,3.68,0,0,1-3-1.33,4.43,4.43,0,0,1-.79-3.6q.18-1.27.52-2.73a15,15,0,0,0,.34-1.47,1.09,1.09,0,0,0-.12-.8.63.63,0,0,0-.53-.27q-.93,0-2.85,2.23a39.56,39.56,0,0,0-4,5.9,55.28,55.28,0,0,0-3.69,7.74A12.4,12.4,0,0,1,223.4,116a4.41,4.41,0,0,1-3.22,1.07,3.07,3.07,0,0,1-3.19-2.67q-.66-2.67.17-8.54a59.31,59.31,0,0,1,4.78-16.47,6.1,6.1,0,0,1,2.37-2.83,7.61,7.61,0,0,1,4-.9,3.48,3.48,0,0,1,1.82.33q.49.33.36,1.27a28.3,28.3,0,0,1-1.67,4.8q-1,2.67-1.72,4.67t-1.36,4.94a45.61,45.61,0,0,1,6.25-9.34A24.1,24.1,0,0,1,238,87.2a10.67,10.67,0,0,1,5-1.53,3.39,3.39,0,0,1,2.81,1.1,4.13,4.13,0,0,1,.58,3.23,31.6,31.6,0,0,1-1.41,4.8h.6A3,3,0,0,1,247.88,95.84Z" transform="translate(-71.2 -54.06)"/><path class="cls-9" d="M218.9,73.79a5.27,5.27,0,0,1-.78,3.49,14,14,0,0,0-.46-3c-.61-1.94-2-1.57-2-2.24C215.64,71.73,218.53,72.37,218.9,73.79Z" transform="translate(-71.2 -54.06)"/><path class="cls-10" d="M121,104.21a1.54,1.54,0,0,1,1.49.8,3.39,3.39,0,0,1,.24,2.07,6.66,6.66,0,0,1-1.44,3.4,10.15,10.15,0,0,1-3.66,2.53A45.29,45.29,0,0,1,107,116a74,74,0,0,1-12.49,1.1,42.24,42.24,0,0,1-13.81-1.9q-5.4-1.9-7.7-5.24a10.28,10.28,0,0,1-1.71-7.54,16.2,16.2,0,0,1,5.07-9.77q4.27-4,11.72-5.84a9.06,9.06,0,0,1-5.47-4,9.59,9.59,0,0,1-1.2-6.4,15.07,15.07,0,0,1,4.23-8.5,23.49,23.49,0,0,1,9-5.7,33.08,33.08,0,0,1,11.55-2q8.27,0,11.9,3.57A10.22,10.22,0,0,1,120.94,73a14,14,0,0,1-2.33,6.37,5.32,5.32,0,0,1-4.44,2.43,4.16,4.16,0,0,1-2.82-.83,2.63,2.63,0,0,1-.72-2.5,11.08,11.08,0,0,1,.68-2.47,26.13,26.13,0,0,0,.76-3,4.24,4.24,0,0,0-1.25-3.9q-1.59-1.5-5.79-1.5A17.1,17.1,0,0,0,95.62,70a8.93,8.93,0,0,0-4.31,6.47,5.49,5.49,0,0,0,1.84,5.17q2.28,2,8.06,2.23a2.72,2.72,0,0,1,2,.67,2.51,2.51,0,0,1,.32,2q-.62,4.4-4.63,4.47a29.63,29.63,0,0,0-9.39,1.53,14.07,14.07,0,0,0-5.77,3.57,8.74,8.74,0,0,0-2.29,4.64,5.75,5.75,0,0,0,3,6.23q3.57,2.1,12,2.1a59.45,59.45,0,0,0,11.89-1.3,64.79,64.79,0,0,0,11-3.17A5.15,5.15,0,0,1,121,104.21Z" transform="translate(-71.2 -54.06)"/><path class="cls-11" d="M144.81,102.68a3.88,3.88,0,0,1,.19,2.2,7,7,0,0,1-1.85,4.13,35.33,35.33,0,0,1-7.05,5.8,14.92,14.92,0,0,1-8,2.27,7.83,7.83,0,0,1-8-5.34q-2.09-5.34-.89-13.81A102,102,0,0,1,124,79.4a73,73,0,0,1,8.71-17.87q5.15-7.47,10.82-7.47a4.79,4.79,0,0,1,4.62,3q1.41,3,.64,8.5-1.12,7.94-7,18.41A123.37,123.37,0,0,1,127,104.68a6.83,6.83,0,0,0,1,3.9,3.13,3.13,0,0,0,2.64,1.17,8.7,8.7,0,0,0,5-1.57,45.19,45.19,0,0,0,6-5.37,2.74,2.74,0,0,1,1.93-.93A1.31,1.31,0,0,1,144.81,102.68ZM136.9,66.19a102.67,102.67,0,0,0-5.33,13.74,106.36,106.36,0,0,0-3.81,15.74A102.61,102.61,0,0,0,137.49,80a47.48,47.48,0,0,0,4.81-14.31q.71-5.07-1.15-5.07Q139.61,60.66,136.9,66.19Z" transform="translate(-71.2 -54.06)"/><path class="cls-12" d="M171,102.68a3.88,3.88,0,0,1,.19,2.2,7,7,0,0,1-1.85,4.13,29.75,29.75,0,0,1-7.75,5.54,21.35,21.35,0,0,1-10,2.53q-7,0-10.34-3.8t-2.41-10.4A21.6,21.6,0,0,1,142,94.31a19.47,19.47,0,0,1,6.25-6.3,15.09,15.09,0,0,1,8.1-2.33,7.39,7.39,0,0,1,5.88,2.3q2,2.3,1.46,6.24a12.62,12.62,0,0,1-4.41,7.9q-3.77,3.3-11.91,5.24,1.24,3.07,5.9,3.07a16.31,16.31,0,0,0,7.13-2.1,27.64,27.64,0,0,0,7.41-5.5,2.74,2.74,0,0,1,1.93-.93A1.31,1.31,0,0,1,171,102.68Zm-21.27-7.6a15.05,15.05,0,0,0-2.68,6.94l0,.13a17.69,17.69,0,0,0,6.6-2.8A6.54,6.54,0,0,0,156.53,95a2.61,2.61,0,0,0-.41-2,2.13,2.13,0,0,0-1.79-.77Q151.85,92.2,149.75,95.07Z" transform="translate(-71.2 -54.06)"/><path class="cls-13" d="M206,102.68a3.87,3.87,0,0,1,.19,2.2,7,7,0,0,1-1.85,4.13,36.93,36.93,0,0,1-7.25,5.77,15.68,15.68,0,0,1-8.23,2.3,12.62,12.62,0,0,1-5.86-1.27,8.25,8.25,0,0,1-3.66-3.6q-4.48,4.8-9.68,4.8a6.29,6.29,0,0,1-6.84-7.8,10.07,10.07,0,0,1,2.29-5.4,5.9,5.9,0,0,1,4.63-2.07q2.4,0,2.15,1.8-.07.47-.37,1.67-.54,2.4-.58,2.73-.28,2,1.45,2a3.79,3.79,0,0,0,2.64-1.5,14.78,14.78,0,0,0,2.51-4.1,22,22,0,0,0,1.57-5.74,11.39,11.39,0,0,0,0-4q-.37-1.63-1.24-1.63a1.56,1.56,0,0,0-1.12.37,4.9,4.9,0,0,0-.84,1.23,5.43,5.43,0,0,1-1.31,1.7,3.75,3.75,0,0,1-2.42.63,2.49,2.49,0,0,1-2.19-1,4.46,4.46,0,0,1-.42-3.17,8.09,8.09,0,0,1,2.82-5.34,8.52,8.52,0,0,1,5.61-1.93,8.67,8.67,0,0,1,4.88,1.37,7.22,7.22,0,0,1,2.91,4,16.92,16.92,0,0,1,5.06-4,11.47,11.47,0,0,1,5.09-1.33,5.19,5.19,0,0,1,3.8,1.2q1.2,1.2.82,3.87a9.46,9.46,0,0,1-1.8,4.7,3.86,3.86,0,0,1-3,1.7,2.33,2.33,0,0,1-1.92-.6,3.41,3.41,0,0,1-.56-1.73,2.83,2.83,0,0,0-.23-1.2.9.9,0,0,0-.88-.4q-.8,0-1.91,1.5a17.69,17.69,0,0,0-2.09,4,22.27,22.27,0,0,0-1.36,5.14,6.43,6.43,0,0,0,.82,4.83,4.5,4.5,0,0,0,3.86,1.7,9,9,0,0,0,5.15-1.77,43.58,43.58,0,0,0,6.14-5.5,2.74,2.74,0,0,1,1.93-.93A1.3,1.3,0,0,1,206,102.68Z" transform="translate(-71.2 -54.06)"/><path class="cls-14" d="M201.37,114q-1.54-3.07-.82-8.14a53.27,53.27,0,0,1,1.85-7.7,80.89,80.89,0,0,1,3.2-8.77,6.81,6.81,0,0,1,2-2.93,5.67,5.67,0,0,1,3.31-.8q3.4,0,3.08,2.27a57.32,57.32,0,0,1-2.35,7.74,63.11,63.11,0,0,0-3,9.94,6.7,6.7,0,0,0,.1,3.07,1.57,1.57,0,0,0,1.65,1.07,5.91,5.91,0,0,0,3.24-1.67,73.56,73.56,0,0,0,5.54-5.27,2.74,2.74,0,0,1,1.93-.93,1.3,1.3,0,0,1,1.25.8,3.87,3.87,0,0,1,.19,2.2,7,7,0,0,1-1.85,4.13q-7.74,8.07-13.47,8.07Q202.91,117.08,201.37,114Z" transform="translate(-71.2 -54.06)"/><path class="cls-15" d="M247.88,95.84a3.09,3.09,0,0,1,.67,2.57,5.64,5.64,0,0,1-.66,1.87,13.82,13.82,0,0,1-3.58,4.14,7.3,7.3,0,0,1-4.5,1.67,3.68,3.68,0,0,1-3-1.33,4.43,4.43,0,0,1-.79-3.6q.18-1.27.52-2.73a15,15,0,0,0,.34-1.47,1.09,1.09,0,0,0-.12-.8.63.63,0,0,0-.53-.27q-.93,0-2.85,2.23a39.56,39.56,0,0,0-4,5.9,55.28,55.28,0,0,0-3.69,7.74A12.4,12.4,0,0,1,223.4,116a4.41,4.41,0,0,1-3.22,1.07,3.07,3.07,0,0,1-3.19-2.67q-.66-2.67.17-8.54a59.31,59.31,0,0,1,4.78-16.47,6.1,6.1,0,0,1,2.37-2.83,7.61,7.61,0,0,1,4-.9,3.48,3.48,0,0,1,1.82.33q.49.33.36,1.27a28.3,28.3,0,0,1-1.67,4.8q-1,2.67-1.72,4.67t-1.36,4.94a45.61,45.61,0,0,1,6.25-9.34A24.1,24.1,0,0,1,238,87.2a10.67,10.67,0,0,1,5-1.53,3.39,3.39,0,0,1,2.81,1.1,4.13,4.13,0,0,1,.58,3.23,31.6,31.6,0,0,1-1.41,4.8h.6A3,3,0,0,1,247.88,95.84Z" transform="translate(-71.2 -54.06)"/><path d="M136.61,125.47a.4.4,0,0,1,.79,0v16a.32.32,0,0,1,0,.11,4.58,4.58,0,0,1-.45,1.78,4.4,4.4,0,0,1-1,1.36,4.48,4.48,0,0,1-1.45.87,5,5,0,0,1-1.75.31,6.64,6.64,0,0,1-1.92-.28,3.25,3.25,0,0,1-1.5-.9.77.77,0,0,1-.22-.45.24.24,0,0,1,.08-.17.61.61,0,0,1,.36-.22.35.35,0,0,1,.28.17,3,3,0,0,0,.44.38,3,3,0,0,0,.61.33,4.67,4.67,0,0,0,1.82.34,3.77,3.77,0,0,0,1.6-.33,3.89,3.89,0,0,0,1.22-.86,4.17,4.17,0,0,0,.8-1.2,4,4,0,0,0,.33-1.36Z" transform="translate(-71.2 -54.06)"/><path d="M141.22,132.53q0-.4.43-.4a.35.35,0,0,1,.39.4v8a5,5,0,0,0,.41,1.9,4.7,4.7,0,0,0,1,1.51,4.79,4.79,0,0,0,1.54,1,5.15,5.15,0,0,0,3.83,0,4.81,4.81,0,0,0,3-4.49v-7.9a.36.36,0,0,1,.4-.4q.43,0,.43.4v12.83q0,.4-.43.4a.36.36,0,0,1-.4-.4v-2a5.82,5.82,0,0,1-2.05,2,5.78,5.78,0,0,1-5.07.3,5.75,5.75,0,0,1-3-3,5.49,5.49,0,0,1-.45-2.22Z" transform="translate(-71.2 -54.06)"/><path d="M156.77,128.06a.83.83,0,1,1,.24.59A.81.81,0,0,1,156.77,128.06Zm.44,4.45c0-.27.14-.4.43-.4a.35.35,0,0,1,.39.4v12.84a.35.35,0,0,1-.39.4c-.29,0-.43-.13-.43-.4Z" transform="translate(-71.2 -54.06)"/><path d="M172.92,134.28a6.58,6.58,0,0,0-1.95-1.2,6.22,6.22,0,0,0-2.31-.43,6,6,0,0,0-2.44.5,6.38,6.38,0,0,0-3.36,3.37,6.23,6.23,0,0,0,0,4.89,6.4,6.4,0,0,0,3.36,3.36,6,6,0,0,0,2.44.5,6.44,6.44,0,0,0,2.37-.43,6.09,6.09,0,0,0,1.95-1.23.43.43,0,0,1,.26-.11.4.4,0,0,1,.29.13.4.4,0,0,1,.13.29.45.45,0,0,1-.22.33v0a7.14,7.14,0,0,1-2.19,1.37,7.19,7.19,0,0,1-5.32-.09,7.1,7.1,0,0,1-2.25-1.52,7.22,7.22,0,0,1-1.52-2.26,7.12,7.12,0,0,1,0-5.52,7.22,7.22,0,0,1,1.52-2.26,7.1,7.1,0,0,1,2.25-1.52,7,7,0,0,1,2.77-.56,6.43,6.43,0,0,1,2.54.49,8.27,8.27,0,0,1,2.11,1.29.49.49,0,0,1,.22.35.44.44,0,0,1-.13.29.36.36,0,0,1-.24.15A.39.39,0,0,1,172.92,134.28Z" transform="translate(-71.2 -54.06)"/><path d="M176.45,139.1a5.9,5.9,0,0,0,.5,2.42,6.3,6.3,0,0,0,1.36,2,6.37,6.37,0,0,0,2,1.31,6.18,6.18,0,0,0,2.42.48,6.5,6.5,0,0,0,2.4-.43,6.27,6.27,0,0,0,2-1.23.38.38,0,0,1,.26-.12.41.41,0,0,1,.25.12.36.36,0,0,1,.14.29.49.49,0,0,1-.22.36v0a6.81,6.81,0,0,1-2.16,1.37,7,7,0,0,1-2.58.47,6.92,6.92,0,0,1-2.77-.56,7.2,7.2,0,0,1-2.26-1.52,7.08,7.08,0,0,1-1.52-2.25,7,7,0,0,1-.56-2.77,7.37,7.37,0,0,1,1.94-5,6.65,6.65,0,0,1,2.09-1.52,6,6,0,0,1,2.55-.56,5.74,5.74,0,0,1,2.42.52,6.61,6.61,0,0,1,2,1.43,7.37,7.37,0,0,1,1.43,2.12,7.57,7.57,0,0,1,.65,2.61.22.22,0,0,1,0,.09v.06a.35.35,0,0,1-.39.4Zm5.76-6.43a5.11,5.11,0,0,0-2.08.43,5.93,5.93,0,0,0-1.75,1.18,6.49,6.49,0,0,0-1.28,1.77,6.68,6.68,0,0,0-.65,2.21H188a6.28,6.28,0,0,0-.61-2.19,6.35,6.35,0,0,0-1.28-1.78,5.92,5.92,0,0,0-1.77-1.19A5.16,5.16,0,0,0,182.21,132.67Z" transform="translate(-71.2 -54.06)"/><path d="M209.84,125.07a5.44,5.44,0,0,1,3.76,1.48,5.09,5.09,0,0,1,.74,6.45,5.34,5.34,0,0,1-.91,1.06,5.76,5.76,0,0,1-1.17.81,4.62,4.62,0,0,1,1.55.78,6,6,0,0,1,1.25,1.28,6.18,6.18,0,0,1,.83,1.62,5.61,5.61,0,0,1,.3,1.8,5.24,5.24,0,0,1-.4,2,5.46,5.46,0,0,1-1.11,1.7,5.59,5.59,0,0,1-1.64,1.18,5.1,5.1,0,0,1-2,.49h-9.66a.26.26,0,0,1-.15-.08l-.07-.11V125.46a.57.57,0,0,1,0-.25.24.24,0,0,1,.09-.11.3.3,0,0,1,.15,0Zm4.56,5.22a4.25,4.25,0,0,0-.36-1.75,4.38,4.38,0,0,0-1-1.41,4.67,4.67,0,0,0-3.22-1.27h-7.9v8.8h7.9a4.81,4.81,0,0,0,1.77-.33,4.48,4.48,0,0,0,1.45-.91,4.35,4.35,0,0,0,1-1.38A4.2,4.2,0,0,0,214.4,130.29Zm1,10.1a4.64,4.64,0,0,0-.38-1.82,5.63,5.63,0,0,0-1-1.59,5.06,5.06,0,0,0-1.45-1.12,3.69,3.69,0,0,0-1.71-.42h-8.93V145H211a4.64,4.64,0,0,0,1.69-.43,4.58,4.58,0,0,0,1.39-1,4.88,4.88,0,0,0,.94-1.44A4.42,4.42,0,0,0,215.4,140.39Z" transform="translate(-71.2 -54.06)"/><path d="M232.23,145.36q0,.4-.39.4t-.43-.4v-3.55a5.32,5.32,0,0,1-.88,1.73,6.3,6.3,0,0,1-1.4,1.35,6.47,6.47,0,0,1-1.75.87,6.24,6.24,0,0,1-4.52-.26,6.86,6.86,0,0,1-2.14-1.53,7.35,7.35,0,0,1-2-5,7.42,7.42,0,0,1,2-5.07,6.8,6.8,0,0,1,2.14-1.54,6.14,6.14,0,0,1,2.6-.56,6.42,6.42,0,0,1,3.64,1.13,6.29,6.29,0,0,1,1.38,1.31,5.76,5.76,0,0,1,.92,1.71v-3.38a.38.38,0,0,1,.43-.43q.39,0,.39.43Zm-.86-6.43a6.56,6.56,0,0,0-.47-2.47,6.5,6.5,0,0,0-1.27-2,6.06,6.06,0,0,0-1.88-1.37,5.45,5.45,0,0,0-4.6,0,6,6,0,0,0-1.86,1.37,6.49,6.49,0,0,0-1.25,2,6.66,6.66,0,0,0-.46,2.47,6.65,6.65,0,0,0,1.71,4.47,5.85,5.85,0,0,0,1.86,1.37,5.52,5.52,0,0,0,4.6,0,5.91,5.91,0,0,0,1.88-1.37,6.6,6.6,0,0,0,1.27-2A6.47,6.47,0,0,0,231.36,138.93Z" transform="translate(-71.2 -54.06)"/><path d="M244.38,133l.13.13a.31.31,0,0,1,.06.2.42.42,0,0,1-.11.3.37.37,0,0,1-.28.12l-.17,0a.29.29,0,0,1-.14-.08,5.61,5.61,0,0,0-1.28-.62,4.4,4.4,0,0,0-1.43-.24,3.68,3.68,0,0,0-1.64.37,4,4,0,0,0-1.3,1,4.79,4.79,0,0,0-.86,1.51,5.45,5.45,0,0,0-.31,1.84l-.07,7.85a.36.36,0,0,1-.42.4.36.36,0,0,1-.4-.4V132.57a.36.36,0,0,1,.4-.4.36.36,0,0,1,.42.4v2.14a3.78,3.78,0,0,1,.63-1.2,3.93,3.93,0,0,1,1-.86,4.25,4.25,0,0,1,1.19-.52,5.1,5.1,0,0,1,1.33-.17,5.64,5.64,0,0,1,1.75.27A5.72,5.72,0,0,1,244.38,133Z" transform="translate(-71.2 -54.06)"/></g></g></svg>